HIERARCHY
ROOT Hips
{
	OFFSET 0.000000 95.729000 0.000000
	CHANNELS 6 Xposition Yposition Zposition Yrotation Xrotation Zrotation
	JOINT RightUpLeg
	{
		OFFSET -9.625000 -1.639000 0.000000
		CHANNELS 3 Yrotation Xrotation Zrotation
		JOINT RightLeg
		{
			OFFSET 0.000000 -41.481000 0.000000
			CHANNELS 3 Yrotation Xrotation Zrotation
			JOINT RightFoot
			{
				OFFSET 0.000000 -43.120000 0.000000
				CHANNELS 3 Yrotation Xrotation Zrotation
				End Site
				{
					OFFSET 0.000000 -7.850000 17.850000
				}
			}
		}
	}
	JOINT LeftUpLeg
	{
		OFFSET 9.625000 -1.639000 0.000000
		CHANNELS 3 Yrotation Xrotation Zrotation
		JOINT LeftLeg
		{
			OFFSET 0.000000 -43.120000 0.000000
			CHANNELS 3 Yrotation Xrotation Zrotation
			JOINT LeftFoot
			{
				OFFSET 0.000000 -43.120000 0.000000
				CHANNELS 3 Yrotation Xrotation Zrotation
				End Site
				{
					OFFSET 0.000000 -7.850000 17.850000
				}
			}
		}
	}
	JOINT Spine
	{
		OFFSET 0.000000 16.395000 0.000000
		CHANNELS 3 Yrotation Xrotation Zrotation
		JOINT Spine1
		{
			OFFSET 0.000000 10.023000 0.000000
			CHANNELS 3 Yrotation Xrotation Zrotation
			JOINT Spine2
			{
				OFFSET 0.000000 10.437000 0.000000
				CHANNELS 3 Yrotation Xrotation Zrotation
				JOINT Spine3
				{
					OFFSET 0.000000 10.023000 0.000000
					CHANNELS 3 Yrotation Xrotation Zrotation
					JOINT Neck
					{
						OFFSET 0.000000 10.713000 0.000000
						CHANNELS 3 Yrotation Xrotation Zrotation
						JOINT Head
						{
							OFFSET 0.000000 9.720000 0.000000
							CHANNELS 3 Yrotation Xrotation Zrotation
							End Site
							{
								OFFSET 0.000000 16.450000 0.000000
							}
						}
					}
					JOINT RightShoulder
					{
						OFFSET -3.275000 7.142000 0.000000
						CHANNELS 3 Yrotation Xrotation Zrotation
						JOINT RightArm
						{
							OFFSET -13.100000 0.000000 0.000000
							CHANNELS 3 Yrotation Xrotation Zrotation
							JOINT RightForeArm
							{
								OFFSET -27.250000 0.000000 0.000000
								CHANNELS 3 Yrotation Xrotation Zrotation
								JOINT RightHand
								{
									OFFSET -26.750000 0.000000 0.000000
									CHANNELS 3 Yrotation Xrotation Zrotation
									End Site
									{
										OFFSET -3.479000 0.532000 0.778000
									}
								}
							}
						}
					}
					JOINT LeftShoulder
					{
						OFFSET 3.275000 7.142000 0.000000
						CHANNELS 3 Yrotation Xrotation Zrotation
						JOINT LeftArm
						{
							OFFSET 13.100000 0.000000 0.000000
							CHANNELS 3 Yrotation Xrotation Zrotation
							JOINT LeftForeArm
							{
								OFFSET 27.250000 0.000000 0.000000
								CHANNELS 3 Yrotation Xrotation Zrotation
								JOINT LeftHand
								{
									OFFSET 26.750000 0.000000 0.000000
									CHANNELS 3 Yrotation Xrotation Zrotation
									End Site
									{
										OFFSET 3.479000 0.532000 0.778000
									}
								}
							}
						}
					}
				}
			}
		}
	}
}
MOTION
Frames: 20
Frame Time: 0.041667
17.89 92.96 -46.38 -113.51 28.58 11.0 29.97 -51.23 -31.43 0.0 33.22 0.0 5.51 -6.59 7.41 2.85 -30.74 1.14 -0.0 22.18 -0.0 -4.77 -8.08 2.82 13.34 21.41 8.76 3.43 4.44 1.61 5.8 6.21 2.81 -2.05 -0.69 0.44 -8.14 0.85 1.79 -39.97 -17.57 16.14 -8.55 -4.2 -6.04 42.69 -53.79 25.04 9.37 32.52 -27.64 -12.9 -6.25 -67.13 -9.91 -7.0 -10.78 -27.06 3.88 -67.81 -24.74 10.93 2.3 -8.46 -18.93 18.08
17.9 92.91 -46.3 -113.64 28.41 10.93 29.93 -51.3 -31.39 0.0 33.53 0.0 5.63 -6.78 7.48 2.97 -31.01 1.1 -0.0 23.0 0.0 -4.89 -7.98 3.03 13.39 21.54 8.79 3.44 4.47 1.61 5.82 6.24 2.81 -2.05 -0.69 0.43 -7.81 0.74 1.7 -39.88 -17.36 15.84 -8.44 -4.57 -6.14 43.04 -53.64 24.68 8.58 32.7 -27.45 -12.92 -6.29 -67.39 -9.92 -7.31 -10.81 -27.01 4.16 -67.92 -25.0 11.02 2.35 -8.4 -18.91 18.06
17.85 93.03 -46.23 -113.64 28.41 10.93 29.69 -51.05 -31.25 0.0 33.01 0.0 5.65 -6.55 7.55 2.38 -25.05 1.27 0.0 12.2 0.0 -3.4 -8.48 0.98 13.39 21.54 8.79 3.44 4.47 1.61 5.82 6.24 2.81 -2.17 -0.66 0.44 -12.96 -3.48 2.42 -37.48 -13.94 13.15 -10.67 -0.66 -5.67 33.92 -54.86 35.97 18.45 34.85 -30.46 -13.05 -5.52 -63.68 -9.8 -7.34 -10.81 -26.02 5.41 -69.47 -24.1 11.12 2.1 -8.9 -19.21 17.89
17.81 93.02 -46.15 -113.64 28.41 10.93 29.71 -51.04 -31.33 0.0 33.0 -0.0 5.66 -6.56 7.61 2.42 -25.5 1.21 0.0 13.11 0.0 -3.44 -8.93 1.06 13.39 21.54 8.79 3.44 4.47 1.61 5.82 6.24 2.81 -2.17 -0.66 0.44 -12.96 -3.48 2.42 -37.48 -13.93 13.16 -10.66 -0.65 -5.67 33.95 -54.86 35.94 18.44 34.84 -30.47 -13.05 -5.52 -63.66 -9.8 -7.34 -10.81 -26.05 5.42 -69.46 -24.1 11.09 2.12 -8.9 -19.2 17.9
17.89 93.04 -46.06 -112.59 30.03 10.94 30.37 -52.39 -32.4 0.0 32.76 0.0 4.65 -6.79 7.4 1.65 -27.86 1.67 -0.0 13.88 -0.0 -3.45 -9.14 1.12 12.56 20.45 8.27 3.25 4.29 1.55 5.52 6.06 2.7 -2.13 -0.68 0.47 -12.11 -3.44 2.37 -37.56 -13.77 13.79 -9.72 -0.87 -5.18 33.95 -54.86 35.93 18.46 34.84 -30.46 -13.06 -5.5 -63.65 -9.11 -4.75 -11.02 -26.28 3.23 -67.55 -24.1 11.07 2.14 -8.9 -19.19 17.9
17.99 93.02 -45.96 -112.55 30.03 10.98 30.47 -52.47 -32.57 -0.0 32.79 0.0 4.68 -6.69 7.44 1.67 -28.19 1.6 -0.0 14.36 0.0 -3.47 -9.31 1.16 12.55 20.46 8.27 3.24 4.29 1.55 5.51 6.06 2.7 -2.13 -0.68 0.47 -12.12 -3.44 2.38 -37.55 -13.77 13.8 -9.73 -0.88 -5.19 33.95 -54.86 35.91 18.47 34.82 -30.46 -13.05 -5.49 -63.64 -9.13 -4.74 -11.01 -26.31 3.22 -67.54 -24.1 11.04 2.15 -8.9 -19.18 17.91
18.05 93.03 -45.89 -112.55 30.03 10.98 31.66 -51.93 -33.26 -0.0 32.58 -0.0 3.82 -6.48 7.69 1.7 -28.3 1.57 0.0 14.48 -0.0 -3.48 -9.32 1.19 12.57 20.47 8.28 3.25 4.29 1.56 5.52 6.06 2.7 -2.13 -0.68 0.47 -12.13 -3.44 2.38 -37.55 -13.77 13.81 -9.74 -0.89 -5.21 33.97 -54.87 35.89 18.47 34.82 -30.45 -13.07 -5.48 -63.64 -9.1 -4.69 -10.99 -26.39 3.17 -67.52 -24.11 11.01 2.16 -8.91 -19.17 17.92
18.11 93.05 -45.83 -112.55 30.03 10.98 31.68 -51.85 -33.29 -0.0 32.37 -0.0 3.8 -6.3 7.71 1.74 -28.33 1.53 0.0 14.43 0.0 -3.5 -9.25 1.22 12.58 20.47 8.3 3.25 4.29 1.56 5.53 6.06 2.71 -2.13 -0.68 0.47 -12.13 -3.45 2.38 -37.55 -13.77 13.81 -9.74 -0.91 -5.23 33.97 -54.87 35.88 18.46 34.8 -30.45 -13.07 -5.47 -63.64 -9.1 -4.68 -11.0 -26.43 3.15 -67.51 -24.12 10.99 2.17 -8.9 -19.15 17.93
18.16 93.07 -45.77 -112.5 30.04 11.02 31.7 -51.79 -33.36 -0.0 32.23 -0.0 3.8 -6.15 7.71 1.73 -28.35 1.47 -0.0 14.35 -0.0 -3.5 -9.18 1.24 12.57 20.47 8.31 3.25 4.29 1.56 5.52 6.06 2.71 -2.13 -0.68 0.47 -12.14 -3.45 2.39 -37.55 -13.77 13.83 -9.74 -0.92 -5.25 33.93 -54.87 35.89 18.45 34.82 -30.47 -13.04 -5.47 -63.61 -9.11 -4.68 -10.99 -26.46 3.14 -67.5 -24.13 10.97 2.17 -8.91 -19.15 17.94
18.21 93.09 -45.72 -112.45 30.04 11.07 31.75 -51.73 -33.44 0.0 32.1 -0.0 3.78 -6.02 7.72 1.74 -28.36 1.41 -0.0 14.26 -0.0 -3.49 -9.1 1.26 12.56 20.47 8.32 3.25 4.29 1.56 5.52 6.07 2.72 -2.13 -0.68 0.47 -12.15 -3.45 2.39 -37.55 -13.77 13.83 -9.75 -0.94 -5.29 33.89 -54.88 35.91 18.47 34.81 -30.47 -13.06 -5.44 -63.61 -9.11 -4.67 -10.99 -26.5 3.12 -67.49 -24.13 10.95 2.18 -8.91 -19.13 17.95
18.26 93.1 -45.67 -112.28 30.03 11.22 31.77 -51.68 -33.62 -0.0 32.06 0.0 3.76 -5.94 7.72 1.67 -28.32 1.3 -0.0 14.03 0.0 -3.5 -8.94 1.28 12.45 20.44 8.29 3.22 4.29 1.56 5.48 6.08 2.71 -2.13 -0.68 0.48 -12.12 -3.45 2.39 -37.54 -13.76 13.85 -9.71 -0.93 -5.3 33.91 -54.88 35.86 18.45 34.79 -30.48 -13.03 -5.4 -63.64 -9.08 -4.65 -10.97 -26.54 3.11 -67.48 -24.15 10.93 2.19 -8.92 -19.12 17.96
18.3 93.11 -45.62 -112.22 30.03 11.28 31.85 -51.61 -33.73 -0.0 31.96 -0.0 3.72 -5.82 7.73 1.71 -28.31 1.21 0.0 13.93 0.0 -3.52 -8.86 1.31 12.42 20.43 8.27 3.21 4.29 1.56 5.46 6.08 2.71 -2.13 -0.68 0.48 -12.09 -3.45 2.38 -37.54 -13.74 13.87 -9.67 -0.93 -5.3 33.92 -54.88 35.81 18.41 34.77 -30.49 -13.0 -5.38 -63.64 -9.04 -4.63 -10.94 -26.58 3.09 -67.46 -24.16 10.89 2.2 -8.93 -19.09 17.97
18.34 93.12 -45.57 -112.22 30.03 11.28 31.94 -51.54 -33.79 0.0 31.84 0.0 3.68 -5.67 7.74 1.75 -28.37 1.17 0.0 13.97 0.0 -3.5 -8.85 1.34 12.42 20.43 8.27 3.21 4.29 1.56 5.46 6.08 2.71 -2.13 -0.68 0.48 -12.05 -3.44 2.38 -37.54 -13.72 13.89 -9.62 -0.93 -5.32 34.08 -54.88 35.62 18.3 34.7 -30.51 -12.96 -5.37 -63.67 -8.98 -4.58 -10.93 -26.65 3.04 -67.43 -24.17 10.86 2.2 -8.94 -19.08 17.97
18.38 93.13 -45.53 -112.22 30.03 11.28 32.01 -51.48 -33.84 -0.0 31.72 -0.0 3.65 -5.54 7.75 1.81 -28.42 1.13 0.0 14.01 -0.0 -3.48 -8.84 1.37 12.42 20.43 8.27 3.21 4.29 1.56 5.46 6.08 2.71 -2.13 -0.68 0.48 -11.99 -3.44 2.37 -37.55 -13.7 13.9 -9.58 -0.93 -5.32 34.12 -54.87 35.55 18.26 34.65 -30.54 -12.91 -5.36 -63.72 -8.93 -4.55 -10.91 -26.7 3.02 -67.41 -24.18 10.82 2.21 -8.95 -19.06 17.98
18.43 93.14 -45.49 -112.15 30.01 11.33 32.02 -51.44 -33.9 0.0 31.65 0.0 3.64 -5.43 7.76 1.92 -28.46 1.03 -0.0 14.0 0.0 -3.57 -8.79 1.4 12.53 20.49 8.39 3.24 4.3 1.58 5.51 6.08 2.75 -2.13 -0.68 0.48 -12.16 -3.47 2.4 -37.54 -13.81 13.88 -9.76 -1.03 -5.42 34.16 -54.87 35.45 18.22 34.62 -30.55 -12.9 -5.34 -63.77 -9.11 -4.64 -10.98 -26.75 2.99 -67.41 -24.19 10.79 2.22 -8.93 -19.04 17.93
18.47 93.14 -45.44 -112.09 30.0 11.38 32.02 -51.41 -33.98 -0.0 31.59 -0.0 3.65 -5.33 7.79 1.97 -28.49 0.95 0.0 13.99 0.0 -3.62 -8.75 1.44 12.53 20.5 8.41 3.24 4.3 1.59 5.51 6.08 2.75 -2.13 -0.68 0.48 -12.16 -3.47 2.4 -37.54 -13.82 13.89 -9.77 -1.05 -5.44 34.2 -54.88 35.35 18.17 34.58 -30.56 -12.9 -5.33 -63.84 -9.1 -4.64 -10.97 -26.8 2.96 -67.4 -24.18 10.76 2.23 -8.92 -19.01 17.87
18.5 93.15 -45.4 -111.89 29.98 11.52 31.94 -51.41 -34.09 0.0 31.61 -0.0 3.67 -5.28 7.82 2.03 -28.49 0.8 0.0 13.86 0.0 -3.77 -8.63 1.48 12.42 20.47 8.39 3.21 4.31 1.59 5.47 6.09 2.76 -2.13 -0.68 0.48 -12.09 -3.47 2.39 -37.55 -13.8 13.92 -9.71 -1.06 -5.44 34.26 -54.9 35.21 18.11 34.54 -30.56 -12.9 -5.33 -63.9 -9.05 -4.63 -10.93 -26.84 2.92 -67.4 -24.19 10.73 2.24 -8.93 -18.99 17.88
18.55 93.16 -45.36 -111.84 29.97 11.56 31.93 -51.4 -34.13 0.0 31.54 0.0 3.69 -5.19 7.85 2.1 -28.54 0.73 0.0 13.88 -0.0 -3.82 -8.59 1.52 12.39 20.46 8.39 3.2 4.31 1.59 5.46 6.1 2.76 -2.12 -0.69 0.48 -12.02 -3.46 2.38 -37.55 -13.77 13.95 -9.64 -1.06 -5.44 34.32 -54.93 35.07 18.05 34.48 -30.56 -12.91 -5.32 -63.93 -8.99 -4.61 -10.88 -26.88 2.88 -67.4 -24.19 10.71 2.24 -8.94 -18.96 17.89
18.59 93.16 -45.32 -111.79 29.96 11.58 31.86 -51.41 -34.13 0.0 31.5 0.0 3.73 -5.11 7.89 2.19 -28.64 0.67 -0.0 14.0 0.0 -3.86 -8.59 1.56 12.36 20.46 8.4 3.2 4.31 1.59 5.45 6.1 2.76 -2.12 -0.69 0.48 -11.95 -3.45 2.38 -37.55 -13.75 13.99 -9.57 -1.06 -5.43 34.41 -54.98 34.88 17.99 34.42 -30.53 -12.95 -5.3 -63.95 -8.93 -4.6 -10.83 -26.9 2.84 -67.41 -24.19 10.68 2.23 -8.97 -18.93 18.04
18.63 93.15 -45.28 -111.76 29.95 11.59 31.85 -51.41 -34.16 0.0 31.46 0.0 3.77 -5.03 7.94 2.37 -28.74 0.56 -0.0 14.16 0.0 -3.89 -8.62 1.62 12.35 20.46 8.4 3.19 4.31 1.59 5.44 6.1 2.76 -2.12 -0.69 0.49 -11.87 -3.45 2.37 -37.56 -13.74 14.04 -9.5 -1.07 -5.43 34.52 -55.04 34.68 17.91 34.34 -30.48 -12.96 -5.25 -63.98 -8.88 -4.64 -10.78 -26.9 2.84 -67.44 -24.2 10.66 2.21 -8.97 -18.9 18.04
